<svg width="100" height="100" viewBox="0 0 100 100" fill="none" xmlns="http://www.w3.org/2000/svg">
<circle cx="50" cy="50" r="50" fill="#3A0CA3"/>
<path d="M60.4975 53.2758V47.8596H55.0813V44.2488H60.4975V38.8325H64.1083V44.2488H69.5246V47.8596H64.1083V53.2758H60.4975ZM44.2488 49.665C42.2628 49.665 40.5627 48.9579 39.1485 47.5436C37.7342 46.1294 37.0271 44.4293 37.0271 42.4433C37.0271 40.4574 37.7342 38.7573 39.1485 37.343C40.5627 35.9288 42.2628 35.2217 44.2488 35.2217C46.2347 35.2217 47.9348 35.9288 49.3491 37.343C50.7633 38.7573 51.4704 40.4574 51.4704 42.4433C51.4704 44.4293 50.7633 46.1294 49.3491 47.5436C47.9348 48.9579 46.2347 49.665 44.2488 49.665ZM29.8054 64.1083V59.0532C29.8054 58.0301 30.0687 57.0898 30.5953 56.2322C31.1219 55.3746 31.8215 54.7202 32.6941 54.2688C34.5597 53.336 36.4554 52.6364 38.3811 52.17C40.3069 51.7036 42.2628 51.4704 44.2488 51.4704C46.2347 51.4704 48.1906 51.7036 50.1164 52.17C52.0421 52.6364 53.9378 53.336 55.8034 54.2688C56.676 54.7202 57.3756 55.3746 57.9022 56.2322C58.4288 57.0898 58.6921 58.0301 58.6921 59.0532V64.1083H29.8054ZM33.4163 60.4975H55.0813V59.0532C55.0813 58.7222 54.9985 58.4213 54.833 58.1505C54.6675 57.8797 54.4494 57.669 54.1785 57.5186C52.5537 56.7061 50.9138 56.0968 49.2588 55.6906C47.6038 55.2844 45.9338 55.0813 44.2488 55.0813C42.5637 55.0813 40.8937 55.2844 39.2387 55.6906C37.5838 56.0968 35.9438 56.7061 34.319 57.5186C34.0481 57.669 33.83 57.8797 33.6645 58.1505C33.499 58.4213 33.4163 58.7222 33.4163 59.0532V60.4975ZM44.2488 46.0542C45.2417 46.0542 46.0918 45.7006 46.7989 44.9935C47.506 44.2864 47.8596 43.4363 47.8596 42.4433C47.8596 41.4504 47.506 40.6003 46.7989 39.8932C46.0918 39.1861 45.2417 38.8325 44.2488 38.8325C43.2558 38.8325 42.4057 39.1861 41.6986 39.8932C40.9915 40.6003 40.6379 41.4504 40.6379 42.4433C40.6379 43.4363 40.9915 44.2864 41.6986 44.9935C42.4057 45.7006 43.2558 46.0542 44.2488 46.0542Z" fill="white"/>
</svg>
