<svg width="100" height="100" viewBox="0 0 100 100" fill="none" xmlns="http://www.w3.org/2000/svg">
<circle cx="50" cy="50" r="49.5" fill="#3A0CA3" stroke="black"/>
<path d="M37.75 61.5833L54 54L61.5833 37.75L45.3333 45.3333L37.75 61.5833ZM49.6667 51.8333C49.0528 51.8333 48.5382 51.6257 48.1229 51.2104C47.7076 50.7951 47.5 50.2806 47.5 49.6667C47.5 49.0528 47.7076 48.5382 48.1229 48.1229C48.5382 47.7076 49.0528 47.5 49.6667 47.5C50.2806 47.5 50.7951 47.7076 51.2104 48.1229C51.6257 48.5382 51.8333 49.0528 51.8333 49.6667C51.8333 50.2806 51.6257 50.7951 51.2104 51.2104C50.7951 51.6257 50.2806 51.8333 49.6667 51.8333ZM49.6667 71.3333C46.6694 71.3333 43.8528 70.7646 41.2167 69.6271C38.5806 68.4896 36.2875 66.9458 34.3375 64.9958C32.3875 63.0458 30.8437 60.7528 29.7062 58.1167C28.5687 55.4806 28 52.6639 28 49.6667C28 46.6694 28.5687 43.8528 29.7062 41.2167C30.8437 38.5806 32.3875 36.2875 34.3375 34.3375C36.2875 32.3875 38.5806 30.8437 41.2167 29.7062C43.8528 28.5687 46.6694 28 49.6667 28C52.6639 28 55.4806 28.5687 58.1167 29.7062C60.7528 30.8437 63.0458 32.3875 64.9958 34.3375C66.9458 36.2875 68.4896 38.5806 69.6271 41.2167C70.7646 43.8528 71.3333 46.6694 71.3333 49.6667C71.3333 52.6639 70.7646 55.4806 69.6271 58.1167C68.4896 60.7528 66.9458 63.0458 64.9958 64.9958C63.0458 66.9458 60.7528 68.4896 58.1167 69.6271C55.4806 70.7646 52.6639 71.3333 49.6667 71.3333ZM49.6667 67C54.5056 67 58.6042 65.3208 61.9625 61.9625C65.3208 58.6042 67 54.5056 67 49.6667C67 44.8278 65.3208 40.7292 61.9625 37.3708C58.6042 34.0125 54.5056 32.3333 49.6667 32.3333C44.8278 32.3333 40.7292 34.0125 37.3708 37.3708C34.0125 40.7292 32.3333 44.8278 32.3333 49.6667C32.3333 54.5056 34.0125 58.6042 37.3708 61.9625C40.7292 65.3208 44.8278 67 49.6667 67Z" fill="white"/>
</svg>
