<svg width="100" height="100" viewBox="0 0 100 100" fill="none" xmlns="http://www.w3.org/2000/svg">
<circle cx="50" cy="50" r="50" fill="#3A0CA3"/>
<path d="M47.7693 56.0742L57.9699 45.8736L55.3972 43.3009L47.7693 50.9288L43.9779 47.1374L41.4052 49.7101L47.7693 56.0742ZM49.665 67.7192C45.4825 66.666 42.0296 64.2663 39.3064 60.5201C36.5833 56.7738 35.2217 52.6139 35.2217 48.0401V37.0271L49.665 31.6108L64.1083 37.0271V48.0401C64.1083 52.6139 62.7467 56.7738 60.0236 60.5201C57.3004 64.2663 53.8475 66.666 49.665 67.7192ZM49.665 63.9278C52.7944 62.9348 55.3822 60.9489 57.4283 57.9699C59.4744 54.991 60.4975 51.6811 60.4975 48.0401V39.5095L49.665 35.4474L38.8325 39.5095V48.0401C38.8325 51.6811 39.8556 54.991 41.9017 57.9699C43.9478 60.9489 46.5356 62.9348 49.665 63.9278Z" fill="#FFF5F5"/>
</svg>
