<svg width="126" height="19" viewBox="0 0 126 19" fill="none" xmlns="http://www.w3.org/2000/svg">
<path d="M110.98 0.549469H113.449L118.386 8.85888H118.595L123.532 0.549469H126L119.568 11.0145V18.3504H117.412V11.0145L110.98 0.549469Z" fill="black"/>
<path d="M98.1449 18.3504V0.549469H108.818V2.46168H100.3V8.47644H108.019V10.3887H100.3V18.3504H98.1449Z" fill="black"/>
<path d="M83.649 18.3504V0.549469H87.4126V15.2474H95.0441V18.3504H83.649Z" fill="black"/>
<path d="M68.6621 18.3504V0.549469H80.6569V3.65246H72.4257V7.89409H80.0397V10.9971H72.4257V15.2474H80.6916V18.3504H68.6621Z" fill="black"/>
<path d="M53.5687 0.549469L57.8711 14.074H58.0363L62.3474 0.549469H66.5195L60.3831 18.3504H55.533L49.3879 0.549469H53.5687Z" fill="black"/>
<path d="M17.2955 18.3504V0.549469H24.3185C25.6628 0.549469 26.8102 0.789944 27.7605 1.27089C28.7166 1.74605 29.4438 2.42112 29.9421 3.2961C30.4462 4.16528 30.6983 5.18802 30.6983 6.36432C30.6983 7.54641 30.4434 8.56336 29.9334 9.41516C29.4235 10.2612 28.6847 10.9102 27.717 11.3621C26.7551 11.8141 25.5904 12.0401 24.2229 12.0401H19.5206V9.01534H23.6144C24.333 9.01534 24.9298 8.91683 25.405 8.71981C25.8801 8.5228 26.2336 8.22728 26.4654 7.83324C26.703 7.43921 26.8217 6.94957 26.8217 6.36432C26.8217 5.77327 26.703 5.27494 26.4654 4.86932C26.2336 4.4637 25.8772 4.15659 25.3963 3.94798C24.9211 3.73359 24.3214 3.62639 23.5971 3.62639H21.059V18.3504H17.2955ZM26.9087 10.2496L31.3328 18.3504H27.1781L22.8496 10.2496H26.9087Z" fill="black"/>
<path d="M0.268066 3.65246V0.549469H14.8878V3.65246H9.43798V18.3504H5.71786V3.65246H0.268066Z" fill="black"/>
<path d="M46.578 18.221L42.5122 4.62346L42.3471 4.62057L37.8005 18.0678L33.6291 17.995L40.0753 0.303875L44.9246 0.38852L50.7581 18.294L46.578 18.221Z" fill="black"/>
</svg>
